<svg width="13" height="29" viewBox="0 0 13 29" fill="none" xmlns="http://www.w3.org/2000/svg">
<path fill-rule="evenodd" clip-rule="evenodd" d="M2.77191 14.4357V27.7073C2.77191 27.8753 2.93991 28.0433 3.1079 28.0433H8.06375C8.23174 28.0433 8.39974 27.8753 8.39974 27.7073V14.1837H12.0116C12.1796 14.1837 12.3476 14.0158 12.3476 13.8478L12.6836 9.81588C12.6836 9.64789 12.5156 9.4799 12.3476 9.4799H8.39974V6.53999C8.39974 5.86801 8.98772 5.28003 9.6597 5.28003H12.4316C12.5996 5.28003 12.7676 5.11203 12.7676 4.94404V0.912161C12.7676 0.744167 12.5996 0.576172 12.4316 0.576172H7.72776C5.03984 0.576172 2.77191 2.7601 2.77191 5.53202V9.4799H0.33599C0.167995 9.4799 0 9.56389 0 9.81588V13.8478C0 14.0158 0.167995 14.1837 0.33599 14.1837H2.77191V14.4357Z" fill="#1D1D1B"/>
</svg>
