<svg width="11" height="24" viewBox="0 0 11 24" fill="none" xmlns="http://www.w3.org/2000/svg">
<path fill-rule="evenodd" clip-rule="evenodd" d="M2.5493 12.5412V23.6581C2.5493 23.7988 2.69002 23.9395 2.83074 23.9395H6.98199C7.12271 23.9395 7.26343 23.7988 7.26343 23.6581V12.3301H10.2889C10.4296 12.3301 10.5704 12.1894 10.5704 12.0487L10.8518 8.67138C10.8518 8.53066 10.7111 8.38994 10.5704 8.38994H7.26343V5.92733C7.26343 5.36445 7.75595 4.87193 8.31884 4.87193H10.6407C10.7814 4.87193 10.9222 4.73121 10.9222 4.59049V1.2132C10.9222 1.07248 10.7814 0.931763 10.6407 0.931763H6.70055C4.44903 0.931763 2.5493 2.76113 2.5493 5.08301V8.38994H0.508858C0.368137 8.38994 0.227417 8.4603 0.227417 8.67138V12.0487C0.227417 12.1894 0.368137 12.3301 0.508858 12.3301H2.5493V12.5412Z" fill="white" fill-opacity="0.4"/>
</svg>
