<svg width="25" height="24" viewBox="0 0 25 24" fill="none" xmlns="http://www.w3.org/2000/svg">
<path d="M24.5459 14.8483V23.416C24.5459 23.668 24.3779 23.836 24.1259 23.836H19.6741C19.4221 23.836 19.2541 23.668 19.2541 23.416V15.4362C19.2541 13.3363 18.4981 11.9083 16.6502 11.9083C15.2222 11.9083 14.3822 12.8323 13.9623 13.8403C13.7943 14.1763 13.7943 14.5963 13.7943 15.1002V23.416C13.7943 23.668 13.6263 23.836 13.3743 23.836H8.92241C8.67042 23.836 8.50243 23.668 8.50243 23.416C8.50243 21.316 8.58642 11.0684 8.50243 8.63244C8.50243 8.38045 8.67042 8.21246 8.92241 8.21246H13.2903C13.5423 8.21246 13.7103 8.38045 13.7103 8.63244V10.4804C13.7103 10.4804 13.7103 10.4804 13.7103 10.5644V10.4804C14.3823 9.38842 15.6422 7.87646 18.4141 7.87646C22.026 7.87646 24.5459 10.0604 24.5459 14.8483ZM1.11066 23.836H5.56252C5.81452 23.836 5.98251 23.668 5.98251 23.416V8.63244C5.98251 8.38045 5.81452 8.21246 5.56252 8.21246H1.11066C0.858669 8.21246 0.690674 8.38045 0.690674 8.63244V23.416C0.690674 23.668 0.858669 23.836 1.11066 23.836Z" fill="#1D1D1B"/>
<path d="M3.12665 6.28015C4.65754 6.28015 5.89857 5.03913 5.89857 3.50824C5.89857 1.97736 4.65754 0.736328 3.12665 0.736328C1.59577 0.736328 0.354736 1.97736 0.354736 3.50824C0.354736 5.03913 1.59577 6.28015 3.12665 6.28015Z" fill="#1D1D1B"/>
</svg>
