<svg width="22" height="20" viewBox="0 0 22 20" fill="none" xmlns="http://www.w3.org/2000/svg">
<path d="M21.026 12.0491V19.2259C21.026 19.4369 20.8853 19.5777 20.6742 19.5777H16.9451C16.734 19.5777 16.5933 19.4369 16.5933 19.2259V12.5416C16.5933 10.7826 15.9601 9.58652 14.4121 9.58652C13.216 9.58652 12.5124 10.3605 12.1606 11.2048C12.0199 11.4862 12.0199 11.838 12.0199 12.2602V19.2259C12.0199 19.4369 11.8792 19.5777 11.6681 19.5777H7.93899C7.72791 19.5777 7.58719 19.4369 7.58719 19.2259C7.58719 17.4669 7.65755 8.88292 7.58719 6.84247C7.58719 6.63139 7.72791 6.49067 7.93899 6.49067H11.5977C11.8088 6.49067 11.9495 6.63139 11.9495 6.84247V8.39039C11.9495 8.39039 11.9495 8.3904 11.9495 8.46076V8.39039C12.5124 7.47571 13.5678 6.20923 15.8897 6.20923C18.9152 6.20923 21.026 8.0386 21.026 12.0491ZM1.3955 19.5777H5.12459C5.33567 19.5777 5.47639 19.4369 5.47639 19.2259V6.84247C5.47639 6.63139 5.33567 6.49067 5.12459 6.49067H1.3955C1.18442 6.49067 1.0437 6.63139 1.0437 6.84247V19.2259C1.0437 19.4369 1.18442 19.5777 1.3955 19.5777Z" fill="white" fill-opacity="0.4"/>
<path d="M3.0839 4.87204C4.36624 4.87204 5.40578 3.8325 5.40578 2.55016C5.40578 1.26782 4.36624 0.228271 3.0839 0.228271C1.80155 0.228271 0.762009 1.26782 0.762009 2.55016C0.762009 3.8325 1.80155 4.87204 3.0839 4.87204Z" fill="white" fill-opacity="0.4"/>
</svg>
