<svg width="25" height="25" viewBox="0 0 25 25" fill="none" xmlns="http://www.w3.org/2000/svg">
<path d="M18.9232 4.73133C18.1492 4.73133 17.516 5.36457 17.516 6.13853C17.516 6.91249 18.1492 7.54574 18.9232 7.54574C19.6971 7.54574 20.3304 6.91249 20.3304 6.13853C20.3304 5.36457 19.7675 4.73133 18.9232 4.73133ZM12.6611 6.49033C9.42457 6.49033 6.75088 9.16401 6.75088 12.4006C6.75088 15.6371 9.42457 18.3108 12.6611 18.3108C15.8977 18.3108 18.5714 15.6371 18.5714 12.4006C18.5714 9.16401 15.9681 6.49033 12.6611 6.49033ZM12.6611 16.2704C10.5503 16.2704 8.86169 14.5818 8.86169 12.4709C8.86169 10.3601 10.5503 8.67149 12.6611 8.67149C14.7719 8.67149 16.4606 10.3601 16.4606 12.4709C16.4606 14.5818 14.7719 16.2704 12.6611 16.2704ZM24.6224 7.47537C24.6224 3.46484 21.3858 0.228271 17.3753 0.228271H7.87664C3.86611 0.228271 0.629547 3.46484 0.629547 7.47537V17.0444C0.629547 21.0549 3.86611 24.2914 7.87664 24.2914H17.4456C21.4562 24.2914 24.6927 21.0549 24.6927 17.0444V7.47537H24.6224ZM22.3708 17.0444C22.3708 19.7884 20.1193 22.0399 17.3753 22.0399H7.87664C5.1326 22.0399 2.88107 19.7884 2.88107 17.0444V7.47537C2.88107 4.73132 5.1326 2.47979 7.87664 2.47979H17.4456C20.1897 2.47979 22.4412 4.73132 22.4412 7.47537V17.0444H22.3708Z" fill="white" fill-opacity="0.4"/>
</svg>
