<svg width="29" height="30" viewBox="0 0 29 30" fill="none" xmlns="http://www.w3.org/2000/svg">
<path d="M21.8779 6.11217C20.9539 6.11217 20.1979 6.86814 20.1979 7.79212C20.1979 8.71609 20.9539 9.47206 21.8779 9.47206C22.8019 9.47206 23.5578 8.71609 23.5578 7.79212C23.5578 6.86814 22.8859 6.11217 21.8779 6.11217ZM14.4021 8.2121C10.5382 8.2121 7.34635 11.404 7.34635 15.2679C7.34635 19.1318 10.5382 22.3237 14.4021 22.3237C18.266 22.3237 21.4579 19.1318 21.4579 15.2679C21.4579 11.404 18.35 8.2121 14.4021 8.2121ZM14.4021 19.8877C11.8822 19.8877 9.86627 17.8718 9.86627 15.3519C9.86627 12.832 11.8822 10.816 14.4021 10.816C16.922 10.816 18.938 12.832 18.938 15.3519C18.938 17.8718 16.922 19.8877 14.4021 19.8877ZM28.6817 9.38806C28.6817 4.60021 24.8178 0.736328 20.03 0.736328H8.6903C3.90245 0.736328 0.0385742 4.60021 0.0385742 9.38806V20.8117C0.0385742 25.5996 3.90245 29.4634 8.6903 29.4634H20.1139C24.9018 29.4634 28.7657 25.5996 28.7657 20.8117V9.38806H28.6817ZM25.9938 20.8117C25.9938 24.0876 23.3059 26.7755 20.03 26.7755H8.6903C5.41441 26.7755 2.72649 24.0876 2.72649 20.8117V9.38806C2.72649 6.11216 5.41441 3.42424 8.6903 3.42424H20.1139C23.3898 3.42424 26.0778 6.11216 26.0778 9.38806V20.8117H25.9938Z" fill="#1D1D1B"/>
</svg>
