<svg width="17" height="20" viewBox="0 0 17 20" fill="none" xmlns="http://www.w3.org/2000/svg">
<path d="M15.6981 8.14411C15.6981 13.7006 8.53588 18.4634 8.53588 18.4634C8.53588 18.4634 1.37363 13.7006 1.37363 8.14411C1.37363 6.24937 2.12822 4.43224 3.4714 3.09246C4.81458 1.75268 6.63633 1 8.53588 1C10.4354 1 12.2572 1.75268 13.6004 3.09246C14.9435 4.43224 15.6981 6.24937 15.6981 8.14411Z" stroke="white" stroke-width="2" stroke-linecap="round" stroke-linejoin="round"/>
<path d="M8.5357 10.5254C9.85424 10.5254 10.9231 9.45925 10.9231 8.14406C10.9231 6.82887 9.85424 5.7627 8.5357 5.7627C7.21717 5.7627 6.14828 6.82887 6.14828 8.14406C6.14828 9.45925 7.21717 10.5254 8.5357 10.5254Z" stroke="white" stroke-width="2" stroke-linecap="round" stroke-linejoin="round"/>
</svg>
