<svg width="137" height="57" viewBox="0 0 137 57" fill="none" xmlns="http://www.w3.org/2000/svg">
<path d="M10.2144 9.06355C9.6462 9.76718 8.9116 10.3181 8.07701 10.6666C8.42035 9.86251 8.49952 8.97015 8.30308 8.11815C7.89204 6.53563 6.26842 5.38471 4.35706 5.38471H3.49387V10.6696H8.07701L4.99124 12.8246H3.49387V17.6162H0V5.38471L3.08283 3.22967H7.43989C8.3935 3.22449 9.31285 3.58488 10.0089 4.23673C10.356 4.5418 10.633 4.91831 10.8211 5.34044C11.0091 5.76257 11.1036 6.22036 11.0982 6.68244C11.1076 7.55802 10.7928 8.40615 10.2144 9.06355Z" fill="#1D1D1B"/>
<path d="M16.5239 14.0165C17.1014 14.6287 17.7995 15.1146 18.5742 15.4436C19.3489 15.7726 20.1833 15.9375 21.0249 15.9279C21.7097 15.929 22.3901 15.8179 23.039 15.5991C22.4463 16.307 21.7069 16.8779 20.872 17.2723C20.0372 17.6667 19.1266 17.8751 18.2033 17.8833C17.3593 17.8949 16.5221 17.731 15.7447 17.402C14.9674 17.0729 14.2669 16.586 13.6877 15.9719C13.0816 15.3698 12.6035 14.6513 12.2821 13.8596C11.9607 13.068 11.8027 12.2196 11.8175 11.3653C11.8071 9.9967 12.2317 8.66016 13.0301 7.54848C13.7944 6.44392 14.8985 5.61917 16.1745 5.19966C15.1762 6.37476 14.6361 7.87102 14.6537 9.41285C14.6388 10.2667 14.7968 11.1147 15.1182 11.9059C15.4396 12.6971 15.9178 13.415 16.5239 14.0165ZM26.1629 13.2561C25.4039 14.3571 24.3074 15.1815 23.039 15.6049C24.0406 14.4237 24.5808 12.9198 24.5598 11.3712C24.5774 10.5192 24.4205 9.67259 24.0989 8.88343C23.7773 8.09427 23.2977 7.3792 22.6896 6.78217C22.1137 6.1718 21.418 5.68696 20.646 5.35805C19.8741 5.02915 19.0424 4.86327 18.2033 4.87082C17.5186 4.87119 16.8385 4.98223 16.1892 5.19966C16.7825 4.49251 17.522 3.92239 18.3568 3.52855C19.1916 3.13472 20.1019 2.92654 21.0249 2.91836C21.8664 2.90878 22.7008 3.07368 23.4755 3.40264C24.2502 3.73161 24.9483 4.21751 25.5258 4.82972C26.1331 5.42606 26.6123 6.14017 26.9339 6.92826C27.2555 7.71636 27.4128 8.56183 27.396 9.41285C27.4117 10.7936 26.979 12.1422 26.1629 13.2561Z" fill="#1D1D1B"/>
<path d="M32.9657 14.3043C33.5487 14.9278 34.256 15.4221 35.0419 15.7554C35.8278 16.0886 36.6748 16.2535 37.5283 16.2392C39.0298 16.2207 40.4828 15.7043 41.6593 14.7712C41.0453 15.6451 40.2425 16.3696 39.3104 16.891C38.1624 17.557 36.8528 17.8933 35.5259 17.8628C34.6416 17.8714 33.7645 17.704 32.9456 17.3703C32.1266 17.0367 31.3822 16.5435 30.7557 15.9194C30.1292 15.2954 29.633 14.5529 29.2962 13.7353C28.9593 12.9177 28.7885 12.0412 28.7936 11.1569C28.7759 9.82978 29.1709 8.52992 29.924 7.43697C30.6552 6.35613 31.6931 5.5187 32.904 5.03236C32.3135 5.62959 31.8491 6.33943 31.5384 7.1197C31.2278 7.89997 31.0771 8.73474 31.0954 9.5744C31.0757 10.4477 31.2311 11.3161 31.5523 12.1285C31.8735 12.9408 32.3541 13.6807 32.9657 14.3043ZM38.8377 5.49626C37.9556 4.95249 36.9561 4.62771 35.9228 4.54906C34.8896 4.4704 33.8525 4.64014 32.8982 5.04411C33.9306 3.93383 35.3152 3.21473 36.8172 3.00871C38.3193 2.8027 39.8464 3.12244 41.1396 3.91374L38.8377 5.49626Z" fill="#1D1D1B"/>
<path d="M46.4068 14.3043C46.9898 14.9278 47.6971 15.4221 48.483 15.7554C49.2689 16.0886 50.1159 16.2535 50.9694 16.2392C52.4709 16.2207 53.9238 15.7043 55.1004 14.7712C54.4864 15.6451 53.6836 16.3696 52.7515 16.891C51.6098 17.5508 50.3089 17.8849 48.9905 17.8569C48.1048 17.8683 47.2257 17.703 46.4045 17.3708C45.5834 17.0385 44.8367 16.546 44.208 15.922C43.5793 15.298 43.0813 14.5549 42.743 13.7363C42.4047 12.9176 42.2329 12.0398 42.2376 11.154C42.22 9.82684 42.615 8.52699 43.368 7.43403C44.0993 6.35319 45.1371 5.51577 46.3481 5.02943C45.7576 5.62665 45.2932 6.33649 44.9825 7.11676C44.6718 7.89704 44.5211 8.73181 44.5395 9.57146C44.519 10.4451 44.6736 11.3139 44.9944 12.1268C45.3151 12.9397 45.7953 13.6801 46.4068 14.3043ZM52.2788 5.49626C51.3967 4.95249 50.3972 4.62771 49.3639 4.54906C48.3307 4.4704 47.2935 4.64014 46.3393 5.04411C47.3717 3.93383 48.7563 3.21473 50.2583 3.00871C51.7604 2.8027 53.2874 3.12244 54.5807 3.91374L52.2788 5.49626Z" fill="#1D1D1B"/>
<path d="M66.7945 4.37768L68.9114 2.90967V17.6162H66.7945V6.28903L59.478 16.4653L57.3611 17.9333V3.22969H59.478V14.551L66.7945 4.37768Z" fill="#1D1D1B"/>
<path d="M82.2499 4.37761L84.3667 2.9096V17.6162H82.2499V6.28897L74.9333 16.4652L72.8164 17.9332V3.22963H74.9333V14.5509L82.2499 4.37761ZM79.0202 2.07577C77.6185 2.25173 76.1985 1.94745 74.992 1.21258L76.7419 0C77.672 0.565773 78.7197 0.910318 79.8041 1.00706C80.8928 1.12179 81.9905 0.899395 82.9486 0.369939C81.8787 1.37834 80.4904 1.98165 79.0232 2.07577H79.0202Z" fill="#1D1D1B"/>
<path d="M90.5529 14.9004C91.1746 15.5595 91.9272 16.0814 92.7625 16.4323C93.5979 16.7832 94.4974 16.9554 95.4033 16.938C96.0722 16.944 96.738 16.845 97.3763 16.6444C98.2332 16.4222 99.0277 16.0063 99.6987 15.4288C98.1367 16.9937 96.3692 17.7777 94.3757 17.7777C93.4581 17.7934 92.5471 17.621 91.6987 17.2711C90.8504 16.9211 90.0827 16.4011 89.4431 15.743C88.7865 15.0974 88.2676 14.3254 87.9179 13.4735C87.5681 12.6217 87.3948 11.7077 87.4085 10.787C87.4067 9.54694 87.7405 8.32952 88.3744 7.26375C89.0016 6.20724 89.9037 5.34067 90.9845 4.75639C90.2284 5.40077 89.6217 6.20204 89.2065 7.10453C88.7912 8.00701 88.5774 8.98908 88.5799 9.98251C88.5643 10.8924 88.7307 11.7962 89.0696 12.6408C89.4084 13.4854 89.9128 14.2536 90.5529 14.9004ZM98.0339 4.87089C96.9382 4.1818 95.6701 3.81642 94.3757 3.81686C93.1847 3.80905 92.0135 4.12137 90.9845 4.72116C92.0974 3.73351 93.5017 3.13511 94.9849 3.01645C96.4681 2.89779 97.9497 3.26533 99.2054 4.06349L98.0339 4.87089Z" fill="#1D1D1B"/>
<path d="M102.411 17.6161V3.22961H103.83V17.6161H102.411ZM105.597 9.82393L112.544 16.979L111.311 17.8422L104.035 10.3172L110.9 3.22961H112.092L105.597 9.82393Z" fill="#1D1D1B"/>
<path d="M125.779 17.3226L125.163 17.7542L122.655 11.6678H116.634L117.25 11.2362H122.491L119.496 3.9666L114.393 17.6162H113.839L119.285 3.47334L119.901 3.04175L125.779 17.3226Z" fill="#1D1D1B"/>
<path d="M130.568 3.65828C130.069 4.03832 129.662 4.52608 129.377 5.08525C129.092 5.64442 128.937 6.26059 128.924 6.88791C128.905 7.38149 128.988 7.87372 129.168 8.33356C129.349 8.79341 129.622 9.21089 129.972 9.55969C130.691 10.2996 131.678 10.6695 132.908 10.6695H133.34L128.055 17.7424L127.424 17.3225L132.121 11.0982C131.612 11.1116 131.106 11.022 130.633 10.8348C130.16 10.6476 129.729 10.3667 129.367 10.0089C128.702 9.32837 128.332 8.41227 128.34 7.46043C128.328 5.96012 129.088 4.56258 130.568 3.65828ZM136.98 3.22962V17.6161H136.282V3.65828H130.568L131.185 3.22668L136.98 3.22962Z" fill="#1D1D1B"/>
<path d="M0 35.2322V20.8457H3.49387V35.2322H0ZM7.21382 26.9468L12.8862 33.6292L9.86505 35.7666L3.76105 28.4265L9.49511 20.8457H12.0377L7.21382 26.9468Z" fill="#1D1D1B"/>
<path d="M24.8476 26.6796C24.2794 27.3833 23.5448 27.9342 22.7102 28.2827C23.0535 27.4786 23.1327 26.5862 22.9363 25.7342C22.5252 24.1517 20.9016 23.0008 18.9902 23.0008H18.1271V28.2856H22.7102L19.6274 30.4436H18.1271V35.2323H14.6332V23.0008L17.716 20.8458H22.0731C23.0267 20.8406 23.946 21.201 24.6421 21.8528C24.9892 22.1579 25.2662 22.5344 25.4542 22.9565C25.6422 23.3787 25.7368 23.8364 25.7314 24.2985C25.7408 25.1741 25.426 26.0222 24.8476 26.6796Z" fill="#1D1D1B"/>
<path d="M30.8489 28.5498V33.5058H37.6311L35.1648 35.2322H28.0538V22.5692L30.5347 20.8457H37.7485L35.2823 22.5721H30.8489V26.8235H36.809L34.3515 28.5498H30.8489Z" fill="#1D1D1B"/>
<path d="M51.8326 34.0403L49.3663 35.8019L47.1878 30.6609H41.8442L44.3105 28.9345H46.4479L44.334 23.9667L40.1179 35.2323H38.3093L43.4679 21.9321L45.8519 20.2585L49.6188 28.9198H49.6599L49.6188 28.9404L51.8326 34.0403Z" fill="#1D1D1B"/>
<path d="M64.6366 20.8457L62.7458 22.1405H59.3753V35.2322H57.2525V22.1376H52.182L54.0728 20.8457H64.6366Z" fill="#1D1D1B"/>
<path d="M75.7143 21.9938L77.8312 20.5258V35.2323H75.7143V23.9051L68.4095 34.0814L66.2926 35.5494V20.8458H68.4095V32.17L75.7143 21.9938Z" fill="#1D1D1B"/>
<path d="M83.3597 34.369H88.8471L87.5934 35.2322H81.9416V21.6854L83.1953 20.8457H86.9563C87.8357 20.8157 88.6917 21.132 89.3404 21.7265C89.661 22.0076 89.9157 22.3559 90.0862 22.7467C90.2567 23.1375 90.3389 23.5611 90.3269 23.9873C90.3072 24.6657 90.0961 25.3249 89.7179 25.8885C89.3397 26.4522 88.8098 26.8974 88.1895 27.1728C88.5181 26.8828 88.7801 26.525 88.9575 26.1241C89.1349 25.7233 89.2234 25.2888 89.2171 24.8504C89.2244 24.4294 89.142 24.0117 88.9755 23.6249C88.8089 23.2382 88.562 22.8913 88.2511 22.6073C87.913 22.2947 87.5163 22.0523 87.0839 21.8941C86.6515 21.7358 86.192 21.6649 85.732 21.6854H83.3685L83.3597 34.369ZM87.3263 27.1523C88.329 27.1022 89.3111 27.4493 90.0597 28.1182C90.4264 28.444 90.7162 28.8471 90.9082 29.2985C91.1001 29.7499 91.1894 30.2383 91.1695 30.7284C91.1504 31.4891 90.924 32.2302 90.5147 32.8717C90.1055 33.5133 89.5289 34.031 88.8471 34.369C89.2195 34.0121 89.5168 33.5844 89.7215 33.1109C89.9262 32.6375 90.0342 32.1279 90.0392 31.6121C90.0545 31.1351 89.9661 30.6605 89.78 30.221C89.594 29.7815 89.3148 29.3876 88.9616 29.0666C88.2433 28.3678 87.2773 28.0184 86.0638 28.0184H83.3509L84.6251 27.1552L87.3263 27.1523Z" fill="#1D1D1B"/>
<path d="M104.487 20.8457H105.905V35.2322H104.487V27.8922H95.8759V35.2322H94.4578V20.8457H95.8759V27.8716L97.0679 27.029H104.487V20.8457Z" fill="#1D1D1B"/>
<path d="M120.621 34.9387L120.004 35.3703L117.497 29.2839H111.475L112.092 28.8523H117.332L114.332 21.5827L109.235 35.2323H108.68L114.126 21.0894L114.743 20.6578L120.621 34.9387Z" fill="#1D1D1B"/>
<path d="M125.409 21.2744C124.91 21.6544 124.503 22.1422 124.218 22.7013C123.934 23.2605 123.779 23.8767 123.765 24.504C123.746 24.9976 123.829 25.4898 124.009 25.9497C124.19 26.4095 124.464 26.827 124.813 27.1758C125.533 27.9157 126.519 28.2856 127.749 28.2856H128.181L122.896 35.3585L122.265 34.9386L126.962 28.7289C126.454 28.7424 125.947 28.6528 125.474 28.4656C125.001 28.2784 124.57 27.9975 124.208 27.6397C123.543 26.9591 123.174 26.043 123.181 25.0912C123.169 23.5762 123.93 22.1787 125.409 21.2744ZM131.827 20.8457V35.2322H131.123V21.2744H125.409L126.026 20.8428L131.827 20.8457Z" fill="#1D1D1B"/>
<path d="M0 52.8484V38.4619H3.49387V52.8484H0ZM9.454 38.4619H12.9479V52.8484H9.454V46.2483H3.52323L6.60606 44.0903H9.454V38.4619Z" fill="#1D1D1B"/>
<path d="M19.7301 46.4538V50.6905H26.4242L23.3267 52.8484H16.2362V40.617L19.319 38.4619H26.6151L23.5322 40.6199H19.7154V44.2987H25.5874L22.5046 46.4567L19.7301 46.4538Z" fill="#1D1D1B"/>
<path d="M42.0086 51.1221V55.1092L39.3163 57V52.8484H29.7184V55.1092L27.0261 57V51.1279H37.1377V40.1854H32.6574C32.8218 45.1766 31.342 48.9934 28.5469 51.1221C29.3074 49.9271 29.8417 48.3446 30.1089 46.3921C30.3754 44.3303 30.3546 42.2415 30.0472 40.1854L32.534 38.459H39.9299V51.1221H42.0086Z" fill="#1D1D1B"/>
<path d="M46.633 45.8783V51.5537H53.518L51.6477 52.8484H44.5161V39.7538L46.3893 38.4619H53.5209L51.6507 39.7567H46.633V44.5865H52.6959L50.8256 45.8813L46.633 45.8783Z" fill="#1D1D1B"/>
<path d="M54.6483 51.307C56.1486 50.896 57.2173 50.1943 57.8133 49.2078C57.601 49.9623 57.2826 50.683 56.8679 51.3481C56.5106 51.9899 56.0078 52.539 55.3999 52.9512L54.6483 51.307ZM67.0207 38.4619V52.8484H65.6231V39.3222H59.5602C59.7242 41.1602 59.6482 43.0117 59.3341 44.8302C59.0259 46.5918 58.5326 48.0598 57.8133 49.2078C58.7381 46.4949 58.8203 43.2065 58.1069 39.3222L59.3606 38.459L67.0207 38.4619Z" fill="#1D1D1B"/>
<path d="M73.248 38.8906C72.7487 39.2706 72.3416 39.7584 72.0569 40.3175C71.7723 40.8767 71.6174 41.4929 71.6038 42.1202C71.5845 42.6138 71.6677 43.106 71.8481 43.5659C72.0285 44.0257 72.3022 44.4432 72.652 44.792C73.3713 45.5319 74.3578 45.9018 75.588 45.9018H76.0196L70.7348 52.9747L70.1035 52.5548L74.8012 46.3451C74.2924 46.3586 73.7862 46.269 73.3129 46.0818C72.8396 45.8946 72.4091 45.6137 72.0472 45.2559C71.3817 44.5753 71.0123 43.6592 71.0196 42.7074C71.0078 41.1924 71.7682 39.7949 73.248 38.8906ZM79.6603 38.4619V52.8484H78.9615V38.8906H73.248L73.8646 38.459L79.6603 38.4619Z" fill="#1D1D1B"/>
</svg>
