<svg width="27" height="23" viewBox="0 0 27 23" fill="none" xmlns="http://www.w3.org/2000/svg">
<path d="M26.6986 2.70011C25.8586 3.1201 24.9346 3.28809 24.0107 3.45609C24.4307 3.37209 25.1026 2.61611 25.3546 2.28012C25.7746 1.77614 26.1106 1.27215 26.2786 0.684171C26.2786 0.600173 26.2786 0.600176 26.2786 0.516178C26.1946 0.516178 26.1946 0.516178 26.1106 0.516178C25.1026 1.10416 24.0107 1.44015 22.9187 1.77614C22.8347 1.77614 22.7507 1.77613 22.6667 1.69214C22.5827 1.60814 22.4987 1.52415 22.4147 1.44015C21.9107 1.02016 21.4067 0.684173 20.9028 0.516178C20.1468 0.180189 19.3068 0.0961914 18.5508 0.0961914C17.7949 0.180189 16.9549 0.34818 16.2829 0.768167C15.6109 1.10416 14.939 1.60814 14.435 2.28012C13.931 2.9521 13.511 3.62408 13.343 4.46405C13.175 5.22003 13.175 5.976 13.259 6.73198C13.259 6.89997 13.259 6.89998 13.175 6.89998C8.80714 6.228 5.11126 4.63205 2.17135 1.27215C2.00335 1.10415 2.00335 1.10415 1.83536 1.27215C0.575397 3.20409 1.16338 6.31199 2.75933 7.90794C3.01132 8.07594 3.17932 8.32794 3.43131 8.49593C3.34731 8.49593 2.25535 8.41193 1.33138 7.90794C1.16338 7.82395 1.16338 7.90794 1.16338 7.99194C1.16338 8.15993 1.16338 8.41193 1.16338 8.66392C1.41537 10.5959 2.75933 12.4438 4.60727 13.1998C4.85926 13.2838 5.11126 13.3678 5.27925 13.4518C4.85927 13.5358 4.43928 13.6198 3.17932 13.5358C3.01132 13.5358 3.01132 13.6198 3.01132 13.7038C3.93529 16.2237 5.95123 16.9797 7.37919 17.3997C7.54718 17.3997 7.79917 17.3997 7.96717 17.4836C7.46318 18.2396 5.78324 18.8276 4.94326 19.0796C3.51531 19.5836 1.91935 19.8356 0.407402 19.6676C0.15541 19.6676 0.0714142 19.6676 0.0714142 19.6676C-0.0125832 19.6676 0.0714129 19.7516 0.15541 19.8356C0.4914 20.0036 0.743394 20.2556 1.07938 20.4236C2.08735 20.9275 3.09532 21.3475 4.10329 21.5995C9.56312 23.1115 15.6949 22.0195 19.8108 17.9036C23.0027 14.7117 24.1787 10.2599 24.1787 5.89201C24.1787 5.72401 24.3467 5.64002 24.5147 5.55602C25.3546 4.96804 26.0266 4.21206 26.6146 3.37208C26.7826 3.20409 26.7826 3.03609 26.7826 2.9521C26.7826 2.61611 26.7826 2.70011 26.6986 2.70011Z" fill="#1D1D1B"/>
<path fill-rule="evenodd" clip-rule="evenodd" d="M8.89124 22.0198C8.89124 21.9358 9.39522 22.0198 8.89124 22.0198C8.89124 22.0198 8.97523 22.0198 8.89124 22.0198Z" fill="#1D1D1B"/>
</svg>
