<svg width="23" height="19" viewBox="0 0 23 19" fill="none" xmlns="http://www.w3.org/2000/svg">
<path d="M22.733 2.22377C22.0294 2.57557 21.2554 2.71629 20.4815 2.85701C20.8333 2.78665 21.3961 2.15341 21.6072 1.87197C21.959 1.4498 22.2405 1.02764 22.3812 0.535122C22.3812 0.464761 22.3812 0.464763 22.3812 0.394403C22.3108 0.394403 22.3108 0.394403 22.2405 0.394403C21.3961 0.886924 20.4815 1.16837 19.5668 1.44981C19.4964 1.44981 19.4261 1.4498 19.3557 1.37944C19.2853 1.30908 19.215 1.23872 19.1446 1.16836C18.7225 0.816563 18.3003 0.535124 17.8781 0.394403C17.2449 0.112963 16.5413 0.0426025 15.9081 0.0426025C15.2748 0.112963 14.5712 0.25368 14.0083 0.605481C13.4454 0.886921 12.8826 1.30908 12.4604 1.87197C12.0382 2.43485 11.6864 2.99773 11.5457 3.70133C11.405 4.33457 11.405 4.96781 11.4754 5.60105C11.4754 5.74177 11.4754 5.74177 11.405 5.74177C7.74627 5.17889 4.65043 3.84205 2.18782 1.02764C2.0471 0.88692 2.0471 0.88692 1.90638 1.02764C0.850978 2.64592 1.3435 5.24925 2.68034 6.58609C2.89142 6.72681 3.03214 6.9379 3.24322 7.07862C3.17286 7.07862 2.25818 7.00826 1.48422 6.58609C1.3435 6.51573 1.3435 6.58609 1.3435 6.65645C1.3435 6.79717 1.3435 7.00826 1.3435 7.21934C1.55458 8.83762 2.68034 10.3855 4.22827 11.0188C4.43935 11.0891 4.65043 11.1595 4.79115 11.2299C4.43935 11.3002 4.08755 11.3706 3.03214 11.3002C2.89142 11.3002 2.89142 11.3706 2.89142 11.4409C3.66539 13.5518 5.35403 14.185 6.55015 14.5368C6.69087 14.5368 6.90195 14.5368 7.04267 14.6072C6.62051 15.2404 5.21331 15.7329 4.50971 15.944C3.31358 16.3662 1.97674 16.5772 0.710257 16.4365C0.499176 16.4365 0.428818 16.4365 0.428818 16.4365C0.358458 16.4365 0.428817 16.5069 0.499177 16.5772C0.780618 16.718 0.9917 16.929 1.27314 17.0698C2.11746 17.4919 2.96178 17.8437 3.80611 18.0548C8.37952 19.3213 13.5158 18.4066 16.9635 14.959C19.6371 12.2853 20.6222 8.55618 20.6222 4.89745C20.6222 4.75673 20.7629 4.68637 20.9036 4.61601C21.6072 4.12349 22.1701 3.49025 22.6626 2.78664C22.8034 2.64592 22.8034 2.5052 22.8034 2.43484C22.8034 2.1534 22.8034 2.22377 22.733 2.22377Z" fill="white" fill-opacity="0.4"/>
<path fill-rule="evenodd" clip-rule="evenodd" d="M7.81688 18.4068C7.81688 18.3364 8.23904 18.4068 7.81688 18.4068C7.81688 18.4068 7.88724 18.4068 7.81688 18.4068Z" fill="white" fill-opacity="0.4"/>
</svg>
